<svg xmlns="http://www.w3.org/2000/svg" viewBox="0 0 36 36" width="36" height="36">
  <!-- Bag shape -->
  <path d="M6 11 Q6 8 9 8 L27 8 Q30 8 30 11 L28 29 Q28 32 25 32 L11 32 Q8 32 8 29Z" fill="#2C1810"/>
  <!-- Top fold crease -->
  <path d="M6 11 L9 8 L27 8 L30 11 L27 13 L9 13Z" fill="#2C1810" fill-opacity=".42"/>
  <!-- Salt crystals -->
  <rect x="12" y="17" width="3.5" height="3.5" rx="0.6" transform="rotate(18 13 18)"  fill="#2C1810" fill-opacity=".28"/>
  <rect x="18" y="15" width="3.5" height="3.5" rx="0.6" transform="rotate(-12 19 16)" fill="#2C1810" fill-opacity=".28"/>
  <rect x="22" y="19" width="3"   height="3"   rx="0.5" transform="rotate(8 23 20)"  fill="#2C1810" fill-opacity=".28"/>
  <rect x="13" y="22" width="3"   height="3"   rx="0.5" transform="rotate(-18 14 23)" fill="#2C1810" fill-opacity=".28"/>
  <rect x="19" y="23" width="3"   height="3"   rx="0.5" transform="rotate(22 20 24)" fill="#2C1810" fill-opacity=".28"/>
  <!-- Label band -->
  <rect x="9" y="14" width="18" height="2" fill="#2C1810" fill-opacity=".18"/>
</svg>
